<?xml version="1.0" encoding="UTF-8" standalone="no"?>
<!DOCTYPE svg PUBLIC "-//W3C//DTD SVG 1.1//EN" "http://www.w3.org/Graphics/SVG/1.1/DTD/svg11.dtd">
<svg width="100%" height="100%" viewBox="0 0 379 417" version="1.1" xmlns="http://www.w3.org/2000/svg" xmlns:xlink="http://www.w3.org/1999/xlink" xml:space="preserve" xmlns:serif="http://www.serif.com/" style="fill-rule:evenodd;clip-rule:evenodd;stroke-linejoin:round;stroke-miterlimit:2;">
    <path d="M0.001,319.999L0.001,96.358C0.001,90.968 3.095,86.057 7.958,83.73C37.581,69.556 141.584,19.792 177.223,2.742C184.861,-0.915 193.746,-0.915 201.392,2.742C237.031,19.792 341.034,69.556 370.655,83.73C375.523,86.057 378.614,90.968 378.614,96.358L378.614,319.999C378.614,325.39 375.523,330.303 370.655,332.632C341.034,346.804 237.031,396.569 201.392,413.616C197.57,415.445 193.438,416.36 189.307,416.36L189.307,416.36L189.307,416.36C185.174,416.36 181.043,415.446 177.223,413.616C141.584,396.569 37.581,346.804 7.958,332.632C3.095,330.303 0.001,325.39 0.001,319.999Z"/>
</svg>
