<?xml version="1.0" encoding="UTF-8" standalone="no"?>
<!DOCTYPE svg PUBLIC "-//W3C//DTD SVG 1.1//EN" "http://www.w3.org/Graphics/SVG/1.1/DTD/svg11.dtd">
<svg width="100%" height="100%" viewBox="0 0 379 417" version="1.1" xmlns="http://www.w3.org/2000/svg" xmlns:xlink="http://www.w3.org/1999/xlink" xml:space="preserve" xmlns:serif="http://www.serif.com/" style="fill-rule:evenodd;clip-rule:evenodd;stroke-linejoin:round;stroke-miterlimit:2;">
    <g transform="matrix(1,0,0,1,-2136.56,-973.343)">
        <g transform="matrix(0.746669,0,0,0.746669,1490.58,432.701)">
            <g id="Full-logo" serif:id="Full logo">
                <path id="Top" d="M1102.5,727.744C1112.73,722.847 1124.63,722.847 1134.87,727.744C1182.6,750.579 1321.89,817.227 1361.56,836.21C1368.08,839.326 1372.22,845.904 1372.22,853.123L1372.22,902.756C1372.22,902.756 1196.66,850.703 1137.72,833.226C1125.3,829.543 1112.07,829.543 1099.65,833.226C1040.71,850.703 865.15,902.756 865.15,902.756L865.15,853.123C865.15,845.904 869.294,839.326 875.807,836.21C915.48,817.227 1054.77,750.579 1102.5,727.744Z"/>
                <path id="Bottom" d="M1134.87,1278.02C1124.63,1282.92 1112.73,1282.92 1102.5,1278.02C1054.77,1255.19 915.48,1188.54 875.807,1169.56C869.294,1166.44 865.15,1159.86 865.15,1152.64L865.15,1103.01C865.15,1103.01 1040.71,1155.06 1099.65,1172.54C1112.07,1176.22 1125.3,1176.22 1137.72,1172.54C1196.66,1155.06 1372.22,1103.01 1372.22,1103.01L1372.22,1152.64C1372.22,1159.86 1368.08,1166.44 1361.56,1169.56C1321.89,1188.54 1182.6,1255.19 1134.87,1278.02Z"/>
                <g id="Mid" transform="matrix(1.33928,0,0,1.33928,-1996.31,-579.509)">
                    <path d="M2136.56,1203.26L2136.56,1159.79L2325.87,1143.63L2325.87,1143.63L2325.87,1143.63L2325.87,1143.63L2515.18,1159.79L2515.18,1203.26L2325.87,1219.42L2136.56,1203.26Z"/>
                </g>
            </g>
        </g>
    </g>
</svg>
